<svg xmlns="http://www.w3.org/2000/svg" xmlns:xlink="http://www.w3.org/1999/xlink" version="1.1" width="254"
     height="254" viewBox="0 0 1080 1080" xml:space="preserve">
<desc>Created with Fabric.js 5.2.4</desc>
  <defs>
</defs>
  <g transform="matrix(1 0 0 1 540 540)" id="470af77b-7d3c-40e0-b29f-4176ca3f243b">
<rect
  style="stroke: none; stroke-width: 1; stroke-dasharray: none; stroke-linecap: butt; stroke-dashoffset: 0; stroke-linejoin: miter; stroke-miterlimit: 4; fill-rule: nonzero; opacity: 1; visibility: hidden;"
  vector-effect="non-scaling-stroke" x="-540" y="-540" rx="0" ry="0" width="1080" height="1080"/>
</g>
  <g transform="matrix(1 0 0 1 540 540)" id="4e1d06b5-0069-4e60-b2e2-81e5811ae34a">
</g>
  <g transform="matrix(0 0 0 0 0 0)">
<g style="">
</g>
</g>
  <g transform="matrix(0 0 0 0 0 0)">
<g style="">
</g>
</g>
  <g transform="matrix(31.46 0 0 31.46 540 540)">
<g style="">
  <g transform="matrix(1 0 0 1 -2.5 4)">
    <path
      style="stroke: none; stroke-width: 1; stroke-dasharray: none; stroke-linecap: butt; stroke-dashoffset: 0; stroke-linejoin: miter; stroke-miterlimit: 4; fill-rule: nonzero; opacity: 1;"
      vector-effect="non-scaling-stroke" transform=" translate(-13.5, -20)"
      d="M 13.5 30.8149 C 13.327302839849631 30.814789245030564 13.15757119327744 30.77000516941785 13.0073 30.684900000000003 L 4.507300000000001 25.8699 C 4.193885102588137 25.692446958136298 4.000107783251729 25.360164501817074 4 25 L 4 15 C 4.000071768841564 14.639799728605437 4.193853988824783 14.307470670088977 4.507299999999999 14.13 L 13.0073 9.315000000000001 C 13.31303746429911 9.14219044774477 13.686962535700891 9.142190447744772 13.992700000000001 9.315000000000001 L 22.4927 14.130000000000003 C 22.806146011175215 14.307470670088977 22.999928231158435 14.639799728605437 23 15 L 23 25 C 22.999928231158435 25.360200271394564 22.806146011175215 25.692529329911025 22.4927 25.87 L 13.9927 30.685000000000002 C 13.842419316949423 30.770070269736518 13.672688239467806 30.81481974601998 13.5 30.8149 Z M 6 24.417 L 13.5 28.6655 L 21 24.417 L 21 15.583 L 13.5 11.3345 L 6 15.583 Z"
      stroke-linecap="round"/>
  </g>
  <g transform="matrix(1 0 0 1 2.76 -6.9)">
    <path
      style="stroke: none; stroke-width: 1; stroke-dasharray: none; stroke-linecap: butt; stroke-dashoffset: 0; stroke-linejoin: miter; stroke-miterlimit: 4; fill-rule: nonzero; opacity: 1;"
      vector-effect="non-scaling-stroke" transform=" translate(-18.75, -9.09)"
      d="M 28 17 L 26 17 L 26 7.583 L 18.5 3.3345 L 10.4927 7.87 L 9.5073 6.13 L 18.0073 1.3149999999999995 C 18.31303746429911 1.1421904477447702 18.68696253570089 1.1421904477447702 18.9927 1.314999999999999 L 27.4927 6.13 C 27.806146011175215 6.307470670088975 27.999928231158435 6.6397997286054355 28 6.999999999999999 Z"
      stroke-linecap="round"/>
  </g>
</g>
</g>
  <g transform="matrix(3.71 0 0 3.71 448.06 681.76)">
<path
  style="stroke: none; stroke-width: 1; stroke-dasharray: none; stroke-linecap: butt; stroke-dashoffset: 0; stroke-linejoin: miter; stroke-miterlimit: 4; fill: rgb(224,78,57); fill-rule: evenodd; opacity: 1;"
  vector-effect="non-scaling-stroke" transform=" translate(-61.63, -61.02)"
  d="M 65.265 24.128 C 73.511 23.965 79.338 26.201 84.352 33.318 C 95.286 60.427 56.205000000000005 74.418 54.638000000000005 74.96799999999999 L 54.589000000000006 74.984 C 54.589000000000006 74.984 53.409000000000006 82.347 64.617 82.064 C 78.41 82.064 92.911 71.37299999999999 98.427 66.85399999999998 C 99.75670872002489 65.7610576690255 101.7038054444608 65.8765412482501 102.89500000000001 67.11899999999999 L 107.025 71.40899999999999 C 108.2293361991205 72.65096658784363 108.26647774133846 74.61335089491321 107.11 75.89999999999999 C 103.52 79.89699999999999 95.096 88.103 82.414 93.404 C 82.414 93.404 61.254000000000005 103.202 46.994 93.92399999999999 C 38.491 88.39399999999999 36.152 81.773 35.201 74.886 C 35.206 74.886 24.877000000000002 74.362 18.244 71.77199999999999 C 11.609 69.17999999999999 18.293 61.36099999999999 18.293 61.36099999999999 C 18.293 61.36099999999999 20.333 58.12799999999999 24.213 61.36099999999999 C 28.096 64.58899999999998 35.343 63.13299999999999 35.343 63.13299999999999 C 35.989000000000004 58.03399999999999 37.063 51.30499999999999 40.227000000000004 44.20299999999999 C 46.859 29.31799999999999 57.016000000000005 24.28799999999999 65.265 24.12799999999999 z M 70.118 39.043 C 65.749 34.833 53.13399999999999 43.245 52.64699999999999 62.492999999999995 C 52.64699999999999 62.492999999999995 56.370999999999995 63.626999999999995 64.61699999999999 57.962999999999994 C 72.86699999999999 52.30199999999999 74.487 43.24499999999999 70.118 39.04299999999999 z"
  stroke-linecap="round"/>
</g>
  </svg>
